# xmcd CD Database Entry
#
# Track frame offsets:
# 150
# 11300
# 28160
# 46235
# 62410
# 76062
# 91495
# 103447
# 114695
# 130077
# 143420
# 158575
# 173277
# 186730
#
# Disc length: 2722 seconds
#
# Revision: 6
# Processed by: cddbd v1.4PL0 Copyright (c) Steve Scherf et al.
# Submitted via: tcd 2.0b
#
DISCID=aa0aa00e
DTITLE=Various Artist - Die schönsten Melodien der Welt - Vol. 1
DYEAR=1900
DGENRE=
TTITLE0=Wonderful World
TTITLE1=Girl from Ipanema
TTITLE2=Saving all my love for you
TTITLE3=Unforgettable
TTITLE4=You are the sunshine of my live
TTITLE5=Killing me softly with his song
TTITLE6=Only You
TTITLE7=Raindrops keep falling on my head
TTITLE8=Without You
TTITLE9=The most beatiful girl
TTITLE10=Lady in red
TTITLE11=Spanish Harlem
TTITLE12=Sumertime
TTITLE13=Time to say goodbye
EXTD=
EXTT0=
EXTT1=
EXTT2=
EXTT3=
EXTT4=
EXTT5=
EXTT6=
EXTT7=
EXTT8=
EXTT9=
EXTT10=
EXTT11=
EXTT12=
EXTT13=
PLAYORDER=
